<?xml version="1.0" encoding="UTF-8"?>
<svg version="1.1" xmlns="http://www.w3.org/2000/svg" width="512" height="512">
<path d="M0 0 C0.66254658 -0.00230769 1.32509317 -0.00461538 2.00771692 -0.006993 C4.23151929 -0.01229381 6.45503303 -0.00330837 8.67882061 0.00558662 C10.28768392 0.00471457 11.89654695 0.0029636 13.50540847 0.00040829 C17.92936022 -0.00406933 22.35321536 0.00394416 26.7771548 0.01396441 C31.54670929 0.02259062 36.3162582 0.01967934 41.08581829 0.01815987 C49.35038134 0.01711049 57.61491285 0.0233926 65.87946796 0.03463554 C77.82866574 0.05088044 89.77784825 0.05609752 101.72705587 0.05861153 C121.11322304 0.06299022 140.49937339 0.07630404 159.88553143 0.09521675 C178.71886392 0.11357105 197.55219182 0.12770683 216.38553143 0.13623238 C218.14423446 0.13703637 218.14423446 0.13703637 219.93846685 0.1378566 C229.10776083 0.14201538 238.27705491 0.14592925 247.44634902 0.14976573 C292.40078268 0.16863763 337.35517425 0.20887317 382.30960369 0.24609566 C382.30960369 60.30609566 382.30960369 120.36609566 382.30960369 182.24609566 C384.28960369 182.90609566 386.26960369 183.56609566 388.30960369 184.24609566 C390.35647869 186.01562691 390.35647869 186.01562691 392.05960369 188.05859566 C392.63194744 188.72504097 393.20429119 189.39148628 393.79397869 190.07812691 C396.72404885 194.2693355 397.56126923 197.93823934 397.60013103 203.01098824 C397.61289074 204.14599266 397.62565044 205.28099709 397.63879681 206.45039558 C397.64213528 208.27706009 397.64213528 208.27706009 397.64554119 210.14062691 C397.65219799 211.40194939 397.65885479 212.66327187 397.66571331 213.96281624 C397.67583317 216.63005892 397.68139657 219.29689391 397.68020916 221.96411324 C397.6800063 225.36352887 397.70728248 228.7621054 397.74175358 232.16132259 C397.76948985 235.42522494 397.76817504 238.68912282 397.77054119 241.95312691 C397.78491222 243.16483055 397.79928326 244.37653419 397.81408978 245.62495613 C397.77134575 253.57503006 396.88069732 259.11897648 391.52835369 265.30468941 C390.96116619 265.75972847 390.39397869 266.21476753 389.80960369 266.68359566 C389.24241619 267.15668159 388.67522869 267.62976753 388.09085369 268.11718941 C386.30960369 269.24609566 386.30960369 269.24609566 382.30960369 270.24609566 C382.30960369 350.10609566 382.30960369 429.96609566 382.30960369 512.24609566 C367.45960369 512.24609566 352.60960369 512.24609566 337.30960369 512.24609566 C337.30960369 509.93609566 337.30960369 507.62609566 337.30960369 505.24609566 C332.35960369 505.24609566 327.40960369 505.24609566 322.30960369 505.24609566 C322.30960369 507.55609566 322.30960369 509.86609566 322.30960369 512.24609566 C282.24033414 512.33768822 242.17107826 512.40815319 202.1017249 512.45035698 C197.36917847 512.45535969 192.63663224 512.46053699 187.90408611 512.46582222 C186.49086283 512.46739608 186.49086283 512.46739608 185.04908959 512.46900174 C169.80195281 512.48639816 154.55487647 512.51793165 139.30777552 512.55470684 C123.65818444 512.59213749 108.00862497 512.614336 92.35899097 512.62244964 C82.705428 512.627933 73.05203588 512.64524016 63.39852551 512.67776152 C56.77515304 512.69893563 50.15186866 512.70528915 43.52846482 512.70010117 C39.70935743 512.69754388 35.89054822 512.70141257 32.0714941 512.72291756 C27.9237978 512.74610161 23.77673207 512.73801982 19.6289854 512.72711372 C17.8327378 512.74459077 17.8327378 512.74459077 16.00020236 512.76242089 C4.41320648 512.68022189 -4.10174842 509.77210768 -12.45992756 501.67968941 C-19.55917813 493.93392215 -22.94304725 486.68815562 -22.93649197 476.01287365 C-22.93879965 475.31594028 -22.94110734 474.6190069 -22.94348496 473.90095434 C-22.94876685 471.57222415 -22.9398161 469.2437721 -22.93090534 466.91505623 C-22.93177778 465.22609564 -22.93352947 463.53713531 -22.93608367 461.84817642 C-22.94055368 457.21211502 -22.93255825 452.57614611 -22.92252755 447.9400965 C-22.91389039 442.93880952 -22.9168134 437.93752776 -22.9183321 432.93623543 C-22.91938078 424.2728273 -22.91310592 415.60944929 -22.90185642 406.94604874 C-22.88560213 394.42023033 -22.88039349 381.8944265 -22.87788044 369.36859869 C-22.87350323 349.04626195 -22.86019341 328.72394126 -22.84127522 308.40161324 C-22.8229171 288.66040312 -22.80876025 268.91919736 -22.80025959 249.17798042 C-22.79973414 247.96112529 -22.7992087 246.74427016 -22.79866733 245.49054063 C-22.79605725 239.38593403 -22.79352984 233.28132739 -22.79104352 227.17672074 C-22.77031021 176.53316795 -22.73508395 125.88963259 -22.69039631 75.24609566 C-20.38039631 75.24609566 -18.07039631 75.24609566 -15.69039631 75.24609566 C-15.69039631 70.29609566 -15.69039631 65.34609566 -15.69039631 60.24609566 C-18.00039631 60.24609566 -20.31039631 60.24609566 -22.69039631 60.24609566 C-22.81773581 53.98411086 -22.90497212 47.72246298 -22.96505451 41.45947456 C-22.9901152 39.33141795 -23.02417322 37.20344669 -23.06759357 35.0756855 C-23.1286172 32.00727402 -23.15669105 28.9400057 -23.17867756 25.87109566 C-23.20448399 24.92806587 -23.23029041 23.98503609 -23.25687885 23.01342964 C-23.25992539 15.75049174 -21.28214206 10.94922745 -16.21183491 5.72168159 C-11.0979968 1.18211106 -6.72524359 -0.00432909 0 0 Z " fill="#aebcfa" transform="translate(68.69039630889893,-0.2460956573486328)"/>
<path d="M0 0 C0.66254658 -0.00230769 1.32509317 -0.00461538 2.00771692 -0.006993 C4.23151929 -0.01229381 6.45503303 -0.00330837 8.67882061 0.00558662 C10.28768392 0.00471457 11.89654695 0.0029636 13.50540847 0.00040829 C17.92936022 -0.00406933 22.35321536 0.00394416 26.7771548 0.01396441 C31.54670929 0.02259062 36.3162582 0.01967934 41.08581829 0.01815987 C49.35038134 0.01711049 57.61491285 0.0233926 65.87946796 0.03463554 C77.82866574 0.05088044 89.77784825 0.05609752 101.72705587 0.05861153 C121.11322304 0.06299022 140.49937339 0.07630404 159.88553143 0.09521675 C178.71886392 0.11357105 197.55219182 0.12770683 216.38553143 0.13623238 C218.14423446 0.13703637 218.14423446 0.13703637 219.93846685 0.1378566 C229.10776083 0.14201538 238.27705491 0.14592925 247.44634902 0.14976573 C292.40078268 0.16863763 337.35517425 0.20887317 382.30960369 0.24609566 C382.30960369 60.30609566 382.30960369 120.36609566 382.30960369 182.24609566 C384.28960369 182.90609566 386.26960369 183.56609566 388.30960369 184.24609566 C390.35647869 186.01562691 390.35647869 186.01562691 392.05960369 188.05859566 C392.63194744 188.72504097 393.20429119 189.39148628 393.79397869 190.07812691 C396.72404885 194.2693355 397.56126923 197.93823934 397.60013103 203.01098824 C397.61289074 204.14599266 397.62565044 205.28099709 397.63879681 206.45039558 C397.64213528 208.27706009 397.64213528 208.27706009 397.64554119 210.14062691 C397.65219799 211.40194939 397.65885479 212.66327187 397.66571331 213.96281624 C397.67583317 216.63005892 397.68139657 219.29689391 397.68020916 221.96411324 C397.6800063 225.36352887 397.70728248 228.7621054 397.74175358 232.16132259 C397.76948985 235.42522494 397.76817504 238.68912282 397.77054119 241.95312691 C397.78491222 243.16483055 397.79928326 244.37653419 397.81408978 245.62495613 C397.77134575 253.57503006 396.88069732 259.11897648 391.52835369 265.30468941 C390.96116619 265.75972847 390.39397869 266.21476753 389.80960369 266.68359566 C389.24241619 267.15668159 388.67522869 267.62976753 388.09085369 268.11718941 C386.30960369 269.24609566 386.30960369 269.24609566 382.30960369 270.24609566 C382.30960369 350.10609566 382.30960369 429.96609566 382.30960369 512.24609566 C367.45960369 512.24609566 352.60960369 512.24609566 337.30960369 512.24609566 C337.30960369 509.93609566 337.30960369 507.62609566 337.30960369 505.24609566 C332.35960369 505.24609566 327.40960369 505.24609566 322.30960369 505.24609566 C322.30960369 507.55609566 322.30960369 509.86609566 322.30960369 512.24609566 C282.24033414 512.33768822 242.17107826 512.40815319 202.1017249 512.45035698 C197.36917847 512.45535969 192.63663224 512.46053699 187.90408611 512.46582222 C186.49086283 512.46739608 186.49086283 512.46739608 185.04908959 512.46900174 C169.80195281 512.48639816 154.55487647 512.51793165 139.30777552 512.55470684 C123.65818444 512.59213749 108.00862497 512.614336 92.35899097 512.62244964 C82.705428 512.627933 73.05203588 512.64524016 63.39852551 512.67776152 C56.77515304 512.69893563 50.15186866 512.70528915 43.52846482 512.70010117 C39.70935743 512.69754388 35.89054822 512.70141257 32.0714941 512.72291756 C27.9237978 512.74610161 23.77673207 512.73801982 19.6289854 512.72711372 C17.8327378 512.74459077 17.8327378 512.74459077 16.00020236 512.76242089 C4.41320648 512.68022189 -4.10174842 509.77210768 -12.45992756 501.67968941 C-19.55917813 493.93392215 -22.94304725 486.68815562 -22.93649197 476.01287365 C-22.93879965 475.31594028 -22.94110734 474.6190069 -22.94348496 473.90095434 C-22.94876685 471.57222415 -22.9398161 469.2437721 -22.93090534 466.91505623 C-22.93177778 465.22609564 -22.93352947 463.53713531 -22.93608367 461.84817642 C-22.94055368 457.21211502 -22.93255825 452.57614611 -22.92252755 447.9400965 C-22.91389039 442.93880952 -22.9168134 437.93752776 -22.9183321 432.93623543 C-22.91938078 424.2728273 -22.91310592 415.60944929 -22.90185642 406.94604874 C-22.88560213 394.42023033 -22.88039349 381.8944265 -22.87788044 369.36859869 C-22.87350323 349.04626195 -22.86019341 328.72394126 -22.84127522 308.40161324 C-22.8229171 288.66040312 -22.80876025 268.91919736 -22.80025959 249.17798042 C-22.79973414 247.96112529 -22.7992087 246.74427016 -22.79866733 245.49054063 C-22.79605725 239.38593403 -22.79352984 233.28132739 -22.79104352 227.17672074 C-22.77031021 176.53316795 -22.73508395 125.88963259 -22.69039631 75.24609566 C-20.38039631 75.24609566 -18.07039631 75.24609566 -15.69039631 75.24609566 C-15.69039631 70.29609566 -15.69039631 65.34609566 -15.69039631 60.24609566 C-18.00039631 60.24609566 -20.31039631 60.24609566 -22.69039631 60.24609566 C-22.81773581 53.98411086 -22.90497212 47.72246298 -22.96505451 41.45947456 C-22.9901152 39.33141795 -23.02417322 37.20344669 -23.06759357 35.0756855 C-23.1286172 32.00727402 -23.15669105 28.9400057 -23.17867756 25.87109566 C-23.20448399 24.92806587 -23.23029041 23.98503609 -23.25687885 23.01342964 C-23.25992539 15.75049174 -21.28214206 10.94922745 -16.21183491 5.72168159 C-11.0979968 1.18211106 -6.72524359 -0.00432909 0 0 Z M97.30960369 15.24609566 C97.30960369 25.80609566 97.30960369 36.36609566 97.30960369 47.24609566 C92.68960369 47.24609566 88.06960369 47.24609566 83.30960369 47.24609566 C72.64690849 49.91176946 64.26300794 56.13224117 58.27054119 65.46093941 C53.74743198 73.86362602 54.30960369 80.08803438 54.30960369 90.24609566 C43.74960369 90.24609566 33.18960369 90.24609566 22.30960369 90.24609566 C22.30960369 180.00609566 22.30960369 269.76609566 22.30960369 362.24609566 C32.86960369 362.24609566 43.42960369 362.24609566 54.30960369 362.24609566 C54.30960369 366.86609566 54.30960369 371.48609566 54.30960369 376.24609566 C57.475407 386.1957632 62.67049247 395.26672083 71.84475994 400.76562691 C81.04015436 405.46489328 85.89139066 405.24609566 97.30960369 405.24609566 C97.30960369 415.80609566 97.30960369 426.36609566 97.30960369 437.24609566 C161.65960369 437.24609566 226.00960369 437.24609566 292.30960369 437.24609566 C292.30960369 426.68609566 292.30960369 416.12609566 292.30960369 405.24609566 C296.92960369 405.24609566 301.54960369 405.24609566 306.30960369 405.24609566 C316.25927123 402.08029235 325.33022886 396.88520687 330.82913494 387.71093941 C335.52840131 378.51554499 335.30960369 373.66430869 335.30960369 362.24609566 C345.86960369 362.24609566 356.42960369 362.24609566 367.30960369 362.24609566 C367.30960369 332.21609566 367.30960369 302.18609566 367.30960369 271.24609566 C360.04960369 271.24609566 352.78960369 271.24609566 345.30960369 271.24609566 C345.30960369 241.54609566 345.30960369 211.84609566 345.30960369 181.24609566 C352.56960369 181.24609566 359.82960369 181.24609566 367.30960369 181.24609566 C367.30960369 151.21609566 367.30960369 121.18609566 367.30960369 90.24609566 C356.74960369 90.24609566 346.18960369 90.24609566 335.30960369 90.24609566 C335.30960369 85.62609566 335.30960369 81.00609566 335.30960369 76.24609566 C332.71904889 65.88387645 327.22859563 58.24311203 318.24710369 52.30859566 C316.94987046 51.59270569 315.63750057 50.90336454 314.30960369 50.24609566 C313.42595135 49.77043159 313.42595135 49.77043159 312.52444744 49.28515816 C305.59825099 46.07940269 300.67570326 47.24609566 292.30960369 47.24609566 C292.30960369 36.68609566 292.30960369 26.12609566 292.30960369 15.24609566 C227.95960369 15.24609566 163.60960369 15.24609566 97.30960369 15.24609566 Z " fill="#000000" transform="translate(68.69039630889893,-0.2460956573486328)"/>
<path d="M0 0 C1.33647583 0.00830841 1.33647583 0.00830841 2.69995117 0.01678467 C16.30317492 0.11570724 29.46821148 0.75001145 42.625 4.5 C43.35895996 4.70367187 44.09291992 4.90734375 44.84912109 5.1171875 C75.41621042 13.93422462 99.69780013 34.4769467 118.8125 59.3125 C119.31918213 59.94704102 119.82586426 60.58158203 120.34790039 61.23535156 C121.73046875 63.08203125 121.73046875 63.08203125 123.625 66.5 C122.92427759 71.05469567 119.52494556 74.53129286 116.6875 78.0625 C116.20095947 78.67311279 115.71441895 79.28372559 115.21313477 79.9128418 C91.32492749 109.56465063 61.01457109 129.24194545 22.90454102 134.10302734 C15.78686462 134.84397863 8.63848619 134.79648123 1.48999023 134.76074219 C-1.07006254 134.74996817 -3.6294207 134.76073384 -6.18945312 134.7734375 C-18.17627798 134.78480992 -29.35886582 133.70328993 -40.875 130.1875 C-41.59929199 129.96876221 -42.32358398 129.75002441 -43.06982422 129.5246582 C-73.63823667 120.0791339 -97.22118555 100.81749154 -116.5625 75.6875 C-117.06918213 75.05295898 -117.57586426 74.41841797 -118.09790039 73.76464844 C-119.48046875 71.91796875 -119.48046875 71.91796875 -121.375 68.5 C-120.67804581 63.8915682 -117.18609303 60.37696879 -114.3125 56.8125 C-113.81935303 56.19528076 -113.32620605 55.57806152 -112.81811523 54.94213867 C-84.05928467 19.22440412 -46.130681 -0.56650573 0 0 Z " fill="#030303" transform="translate(262.375,158.5)"/>
<path d="M0 0 C1.88551629 -0.00597315 1.88551629 -0.00597315 3.80912381 -0.01206696 C5.20144303 -0.00636122 6.59376149 -0.00047004 7.98607922 0.00558662 C9.46707377 0.00471447 10.94806803 0.00296332 12.42906064 0.00040829 C16.49956679 -0.00406737 20.56996785 0.00394145 24.64046061 0.01396441 C29.02964343 0.02259345 33.41882023 0.01967914 37.80800915 0.01815987 C45.41286469 0.01711067 53.01768593 0.0233909 60.62253284 0.03463554 C71.61788899 0.05088287 82.61322854 0.05609776 93.60859539 0.05861153 C111.44742 0.06298983 129.28622633 0.07630262 147.12504101 0.09521675 C164.45479268 0.11357203 181.78453939 0.12773026 199.11429882 0.13623238 C200.18232962 0.13675782 201.25036042 0.13728327 202.35075579 0.13782464 C207.70870009 0.1404347 213.06664444 0.14296212 218.4245888 0.14544845 C262.88098604 0.16618517 307.33736288 0.20156298 351.79374218 0.24609566 C351.79374218 5.19609566 351.79374218 10.14609566 351.79374218 15.24609566 C235.30374218 15.24609566 118.81374218 15.24609566 -1.20625782 15.24609566 C-1.20625782 20.19609566 -1.20625782 25.14609566 -1.20625782 30.24609566 C115.28374218 30.24609566 231.77374218 30.24609566 351.79374218 30.24609566 C351.79374218 35.19609566 351.79374218 40.14609566 351.79374218 45.24609566 C341.89374218 45.24609566 331.99374218 45.24609566 321.79374218 45.24609566 C321.79374218 47.88609566 321.79374218 50.52609566 321.79374218 53.24609566 C316.84374218 53.24609566 311.89374218 53.24609566 306.79374218 53.24609566 C306.79374218 50.60609566 306.79374218 47.96609566 306.79374218 45.24609566 C305.80485107 45.24837398 305.80485107 45.24837398 304.79598236 45.25069833 C265.72374916 45.34020859 226.65152918 45.40884086 187.57921422 45.45035698 C182.88786529 45.45535981 178.19651658 45.4605371 173.50516796 45.46582222 C172.57120402 45.46687146 171.63724008 45.4679207 170.6749742 45.46900174 C155.55190779 45.48640747 140.42890218 45.51794609 125.30587184 45.55470684 C109.78850673 45.59211158 94.27117346 45.61433052 78.75376511 45.62244964 C69.17850211 45.62793838 59.60341101 45.64527475 50.02820092 45.67776152 C43.46231769 45.69890363 36.89652335 45.70529639 30.33060855 45.70010117 C26.54225107 45.69753891 22.75419401 45.70146952 18.96588993 45.72291756 C14.85655322 45.746013 10.74785563 45.73804352 6.63846874 45.72711372 C4.84662261 45.74459077 4.84662261 45.74459077 3.01857758 45.76242089 C-4.89979818 45.70541339 -10.28852141 44.61780609 -16.44844532 39.31640816 C-21.71309261 33.04417287 -23.73369334 28.01967854 -23.51094532 19.76562691 C-22.64001231 12.56368084 -18.65548337 8.26630835 -13.30391407 3.69140816 C-8.96187688 0.69968793 -5.226734 -0.00365634 0 0 Z " fill="#FEFEFE" transform="translate(84.2062578201294,451.75390434265137)"/>
<path d="M0 0 C12.23360571 8.37504112 21.40213467 20.93935552 24.1875 35.75 C24.97698409 51.52132172 22.60991712 66.18635125 12.12109375 78.66015625 C2.41628915 89.14918749 -9.17409497 96.33753834 -23.73046875 97.12109375 C-41.1535441 97.52635786 -53.53158176 93.52950928 -66.5625 81.4375 C-77.68571697 69.7123207 -81.21803375 55.34289807 -81.09375 39.60546875 C-80.08316321 25.75200821 -72.58331577 14.17688305 -62.8125 4.75 C-44.99219414 -10.52031201 -20.03475541 -11.94432212 0 0 Z " fill="#F8EA8B" transform="translate(291.8125,181.25)"/>
<path d="M0 0 C8.00860264 5.47635876 14.11432542 13.5770976 16.35546875 23.0625 C18.18765471 33.97525671 16.67728865 43.74066407 10.55078125 52.96484375 C4.4494645 61.10844225 -3.00353082 66.78641241 -13.19921875 68.71484375 C-26.5876996 69.83527806 -35.90358573 68.01812045 -46.63671875 59.33984375 C-54.51076791 51.87419963 -58.24979653 42.64451427 -58.57421875 31.83984375 C-58.40670726 25.68977887 -57.5579701 19.4321464 -55.19921875 13.71484375 C-54.20921875 13.38484375 -53.21921875 13.05484375 -52.19921875 12.71484375 C-50.49807758 13.7289856 -48.79769013 14.74448086 -47.10546875 15.7734375 C-44.01034541 17.30197177 -41.55634927 17.23132537 -38.19921875 16.71484375 C-35.92472558 14.73383357 -35.3475197 13.38219802 -34.69921875 10.46484375 C-35.35411612 6.86290824 -37.04802479 4.47338386 -39.10546875 1.484375 C-40.19921875 -0.28515625 -40.19921875 -0.28515625 -40.19921875 -2.28515625 C-27.18842491 -7.65570506 -12.16016181 -7.10602706 0 0 Z " fill="#030301" transform="translate(284.19921875,194.28515625)"/>
<path d="M0 0 C4.95 0 9.9 0 15 0 C15 89.76 15 179.52 15 272 C10.05 272 5.1 272 0 272 C0 182.24 0 92.48 0 0 Z " fill="#819df7" transform="translate(91,90)"/>
<path d="M0 0 C0 64.02 0 128.04 0 194 C-12 199 -12 199 -15 200 C-15.0934699 176.01720044 -15.1639923 152.03442821 -15.20724869 128.05148315 C-15.22786784 116.91560779 -15.2559762 105.77984566 -15.30175781 94.64404297 C-15.34164523 84.93729609 -15.36743751 75.23063122 -15.37635398 65.52380466 C-15.38156547 60.38479523 -15.3938011 55.24602038 -15.42292023 50.10708618 C-15.45011932 45.26767978 -15.45843587 40.42860408 -15.45243073 35.58912849 C-15.45352895 33.81543237 -15.46145602 32.04172492 -15.4768219 30.26809502 C-15.49682067 27.84011173 -15.49190394 25.41336544 -15.48101807 22.98535156 C-15.49266943 22.28882886 -15.5043208 21.59230616 -15.51632524 20.8746767 C-15.43928946 14.48720246 -13.13350921 9.42425614 -8.96484375 4.6875 C-8.29582031 4.130625 -7.62679687 3.57375 -6.9375 3 C-6.26589844 2.4225 -5.59429687 1.845 -4.90234375 1.25 C-3 0 -3 0 0 0 Z " fill="#aebcfa" transform="translate(76,123)"/>
<path d="M0 0 C5.94 0 11.88 0 18 0 C18 19.8 18 39.6 18 60 C-1.8 60 -21.6 60 -42 60 C-42 54.06 -42 48.12 -42 42 C-40.06125 41.46375 -38.1225 40.9275 -36.125 40.375 C-22.90317423 36.3034258 -13.10826205 28.89898854 -6 17 C-3.3391757 11.46416739 -1.69139717 5.91989011 0 0 Z " fill="#FCEE8D" transform="translate(418,377)"/>
<path d="M0 0 C5.94 0 11.88 0 18 0 C18.53625 1.93875 19.0725 3.8775 19.625 5.875 C23.68846785 19.07050161 31.09073596 28.94326758 43 36 C48.60274658 38.71078162 53.88712239 40.77742448 60 42 C60 47.94 60 53.88 60 60 C40.2 60 20.4 60 0 60 C0 40.2 0 20.4 0 0 Z " fill="#FBED8D" transform="translate(91,377)"/>
<path d="M0 0 C19.8 0 39.6 0 60 0 C60 19.8 60 39.6 60 60 C54.06 60 48.12 60 42 60 C41.46375 58.06125 40.9275 56.1225 40.375 54.125 C36.31153215 40.92949839 28.90926404 31.05673242 17 24 C11.39725342 21.28921838 6.11287761 19.22257552 0 18 C0 12.06 0 6.12 0 0 Z " fill="#FCEE8D" transform="translate(376,15)"/>
<path d="M0 0 C19.8 0 39.6 0 60 0 C60 5.94 60 11.88 60 18 C58.06125 18.53625 56.1225 19.0725 54.125 19.625 C47.7352196 21.59749743 42.45982055 24.16363051 37 28 C36.36449219 28.43957031 35.72898438 28.87914063 35.07421875 29.33203125 C25.64093198 36.59001464 20.28200818 48.58995908 18 60 C12.06 60 6.12 60 0 60 C0 40.2 0 20.4 0 0 Z " fill="#FCEE8D" transform="translate(91,15)"/>
<path d="M0 0 C0 3.51479702 -0.65021767 4.18178057 -2.6875 6.9375 C-12.96923699 21.8861247 -14.68724385 38.58613354 -12.375 56.1875 C-10.36906762 66.45730873 -5.89869282 76.12276919 1 84 C0.67 84.66 0.34 85.32 0 86 C-17.71695379 76.48950323 -41.19773574 62.85400144 -50.09765625 43.62890625 C-49.93624085 39.2836036 -47.1056236 36.90406391 -44.25 33.8125 C-43.6523584 33.14903564 -43.0547168 32.48557129 -42.43896484 31.80200195 C-30.1202462 18.30640865 -16.22603071 8.29855209 0 0 Z " fill="#FAFAFA" transform="translate(210,183)"/>
<path d="M0 0 C17.77538465 8.15830724 43.45580389 23.27594326 50.984375 42.515625 C51.00710068 46.12900846 49.49395059 47.27342859 47 49.8125 C45.74123047 51.12154297 45.74123047 51.12154297 44.45703125 52.45703125 C43.64621094 53.29621094 42.83539063 54.13539063 42 55 C40.88804726 56.32684698 39.7831522 57.65966121 38.6875 59 C28.16809397 70.99454113 14.30625517 79.28284182 0 86 C1.44322159 82.98985211 3.0991124 80.19985748 4.875 77.375 C13.94892025 62.25917676 16.65968761 44.18178074 13 26.875 C10.57585455 18.56530911 6.40935646 7.94868397 0 2 C0 1.34 0 0.68 0 0 Z " fill="#FAFAFA" transform="translate(316,183)"/>
<path d="M0 0 C0 34.65 0 69.3 0 105 C-12 110 -12 110 -15 111 C-15.09279227 98.62138482 -15.16381208 86.24285277 -15.20724869 73.86396027 C-15.22809899 68.11556183 -15.25637035 62.36740184 -15.30175781 56.61914062 C-15.34530612 51.06890019 -15.36915634 45.51888873 -15.37950897 39.9684906 C-15.38688416 37.8538401 -15.40128621 35.73920174 -15.42292023 33.62464905 C-15.45207321 30.65639431 -15.45595098 27.68907862 -15.45410156 24.72070312 C-15.46848267 23.85179443 -15.48286377 22.98288574 -15.49768066 22.08764648 C-15.45102304 15.14027439 -13.57877015 9.93019564 -8.96484375 4.6875 C-8.29582031 4.130625 -7.62679687 3.57375 -6.9375 3 C-6.26589844 2.4225 -5.59429687 1.845 -4.90234375 1.25 C-3 0 -3 0 0 0 Z " fill="#a0b2f9" transform="translate(76,333)"/>
<path d="M0 0 C0 30.36 0 60.72 0 92 C-12 97 -12 97 -15 98 C-15 85.46 -15 72.92 -15 60 C-17.64 60 -20.28 60 -23 60 C-23 55.05 -23 50.1 -23 45 C-20.36 45 -17.72 45 -15 45 C-15.02618408 43.81446533 -15.05236816 42.62893066 -15.0793457 41.4074707 C-15.16999021 37.00011134 -15.22730088 32.592834 -15.2746582 28.18481445 C-15.29976999 26.27874893 -15.33386645 24.37277941 -15.37719727 22.46704102 C-15.43799744 19.72388002 -15.46624245 16.98199414 -15.48828125 14.23828125 C-15.51408768 13.38913651 -15.5398941 12.53999176 -15.56648254 11.66511536 C-15.568414 7.57133774 -15.29230427 5.47206859 -13.09448242 1.92260742 C-10 0 -10 0 0 0 Z " fill="#a0b2f9" transform="translate(76,15)"/>
<path d="M0 0 C5.94 0 11.88 0 18 0 C23.62643037 5.62643037 23.62643037 5.62643037 23.64697266 10.078125 C23.66273346 11.06264648 23.67849426 12.04716797 23.69473267 13.06152344 C23.67955093 14.63981934 23.67955093 14.63981934 23.6640625 16.25 C23.66884613 17.34086914 23.67362976 18.43173828 23.67855835 19.55566406 C23.68195613 21.85873865 23.67276243 24.16186155 23.65185547 26.46484375 C23.6250906 29.98807417 23.65161001 33.50811856 23.68359375 37.03125 C23.68028963 39.27084036 23.67388337 41.51042874 23.6640625 43.75 C23.67418365 44.80219727 23.68430481 45.85439453 23.69473267 46.93847656 C23.67897186 47.92299805 23.66321106 48.90751953 23.64697266 49.921875 C23.64299469 50.78393555 23.63901672 51.64599609 23.63491821 52.53417969 C23 55 23 55 18 60 C12.06 60 6.12 60 0 60 C0 40.2 0 20.4 0 0 Z " fill="#FCEE8D" transform="translate(428,196)"/>
<path d="M0 0 C5.37964388 -0.82763752 8.57915367 0.9871804 12.80859375 4.04296875 C17.3615462 8.10897441 20.35235191 12.71013544 21.5390625 18.73828125 C21.91161813 25.66977672 20.09889698 31.40436976 16 37 C9.32568479 43.2787057 3.94083681 44.63584482 -5.15625 44.39453125 C-10.77939901 43.81735844 -14.13520137 42.08219355 -18 38 C-21.6832542 33.1887492 -24.43182829 29.21168389 -24 23 C-23.34773437 22.90203125 -22.69546875 22.8040625 -22.0234375 22.703125 C-15.19955729 21.53561747 -10.68163529 19.8348716 -5.8125 14.6875 C-2.7384359 10.12940495 -0.82379204 5.43702748 0 0 Z " fill="#F9DC25" transform="translate(265,204)"/>
<path d="M0 0 C4.95 0 9.9 0 15 0 C15 19.8 15 39.6 15 60 C10.05 60 5.1 60 0 60 C0 40.2 0 20.4 0 0 Z " fill="#FEE026" transform="translate(91,377)"/>
<path d="M0 0 C4.95 0 9.9 0 15 0 C15 19.8 15 39.6 15 60 C10.05 60 5.1 60 0 60 C0 40.2 0 20.4 0 0 Z " fill="#FEE026" transform="translate(91,15)"/>
<path d="M0 0 C4.95 0 9.9 0 15 0 C15 19.47 15 38.94 15 59 C10.05 59 5.1 59 0 59 C0 39.53 0 20.06 0 0 Z " fill="#000000" transform="translate(256,309)"/>
<path d="M0 0 C4.95 0 9.9 0 15 0 C15 19.47 15 38.94 15 59 C10.05 59 5.1 59 0 59 C0 39.53 0 20.06 0 0 Z " fill="#000000" transform="translate(256,84)"/>
<path d="M0 0 C-0.39832031 0.4846875 -0.79664062 0.969375 -1.20703125 1.46875 C-8.15581952 10.26040426 -10.24956562 17.6844891 -9 29 C-7.28655917 35.10758749 -3.81936161 40.01361123 0 45 C-6.36179633 45.45441402 -10.74623479 44.75418752 -16 41 C-22.04255828 35.42042752 -24.95873093 30.39992453 -25.375 22.125 C-25.2064004 15.87744814 -23.42158839 11.56314262 -19.12890625 7.01953125 C-12.83019097 1.24471667 -8.44739299 -0.2863523 0 0 Z " fill="#aebcfa" transform="translate(86,452)"/>
<path d="M0 0 C1.37577361 0.11617644 2.75061045 0.24345777 4.125 0.375 C4.89070312 0.44460938 5.65640625 0.51421875 6.4453125 0.5859375 C9.43417446 1.07037078 12.1398524 2.01908295 15 3 C14.20955463 7.29189252 13.41741916 11.5834715 12.625 15.875 C12.29242188 17.68097656 12.29242188 17.68097656 11.953125 19.5234375 C10.689756 26.36049325 9.39079505 33.18766159 8 40 C2.93701816 39.52745503 -2.01434881 39.02635017 -7 38 C-6.45076707 29.82811073 -5.1570069 21.95267909 -3.5 13.9375 C-3.27441406 12.81150391 -3.04882812 11.68550781 -2.81640625 10.52539062 C-1.1409337 2.2818674 -1.1409337 2.2818674 0 0 Z " fill="#070508" transform="translate(221,305)"/>
<path d="M0 0 C0.84033982 3.98269682 1.6763467 7.96627739 2.50854492 11.95068359 C2.79156775 13.30281428 3.07572331 14.65470843 3.36108398 16.00634766 C4.83380139 22.98563539 6.28441185 29.89846697 7 37 C5.0636296 37.50435694 3.12585854 38.00333874 1.1875 38.5 C0.10855469 38.7784375 -0.97039062 39.056875 -2.08203125 39.34375 C-5 40 -5 40 -8 40 C-8.84351511 36.19705969 -9.67933147 32.39251076 -10.50854492 28.58642578 C-10.92821962 26.66743515 -11.35369338 24.74971567 -11.77929688 22.83203125 C-13.28663398 15.89464844 -14.52941869 9.08871277 -15 2 C-9.91868086 0.91598525 -5.21606368 -0.06114067 0 0 Z " fill="#060407" transform="translate(229,107)"/>
<path d="M0 0 C1.99282216 7.4277917 3.65538108 14.90298319 5.1875 22.4375 C5.36635742 23.30149414 5.54521484 24.16548828 5.72949219 25.05566406 C6.53668392 29.08847578 7.2463548 32.86293843 7 37 C1.73312281 38.75562573 -2.44395895 39.09260068 -8 39 C-8.86035857 34.53536447 -9.71466528 30.0696285 -10.56347656 25.6027832 C-10.85284597 24.08456487 -11.1438431 22.5666558 -11.43652344 21.04907227 C-11.85784237 18.86294293 -12.27322233 16.67575444 -12.6875 14.48828125 C-12.88436401 13.47704948 -12.88436401 13.47704948 -13.08520508 12.44538879 C-13.74742802 8.91561505 -14.14500495 5.59189352 -14 2 C-9.10945915 0.65088528 -5.10629224 -0.11704968 0 0 Z " fill="#030203" transform="translate(306,306)"/>
<path d="M0 0 C5.48235476 -0.10632446 9.7671264 0.5311232 15 2 C14.31137469 10.0107172 12.66689417 17.71803223 10.9375 25.5625 C10.652578 26.87035198 10.36806969 28.17829415 10.08398438 29.48632812 C9.39337262 32.6584601 8.69861189 35.8296221 8 39 C6.22880197 38.85866501 4.45804713 38.71176792 2.6875 38.5625 C1.70136719 38.48128906 0.71523438 38.40007812 -0.30078125 38.31640625 C-3 38 -3 38 -6 37 C-5.44030057 28.62574949 -4.08579985 20.53553089 -2.4375 12.3125 C-2.20353516 11.12205078 -1.96957031 9.93160156 -1.72851562 8.70507812 C-1.15729936 5.8023669 -0.58104763 2.90075626 0 0 Z " fill="#020203" transform="translate(298,107)"/>
<path d="M0 0 C0.33 0 0.66 0 1 0 C1 14.85 1 29.7 1 45 C12.18384831 44.97077285 12.18384831 44.97077285 23 43 C23.13592021 44.89382164 23.2324094 46.79049704 23.3125 48.6875 C23.37050781 49.74324219 23.42851562 50.79898438 23.48828125 51.88671875 C23 55 23 55 18 60 C12.06 60 6.12 60 0 60 C0 40.2 0 20.4 0 0 Z " fill="#E8CE29" transform="translate(428,196)"/>
<path d="M0 0 C1.20718817 2.4613715 2.22605697 4.82064765 3.1875 7.375 C3.46013672 8.06078125 3.73277344 8.7465625 4.01367188 9.453125 C5.17139955 12.43594216 6 14.77442504 6 18 C4.04350603 18.83764268 2.08474444 19.66999059 0.125 20.5 C-0.96554687 20.9640625 -2.05609375 21.428125 -3.1796875 21.90625 C-6 23 -6 23 -8 23 C-9.17094005 20.2100561 -10.33690927 17.41821403 -11.5 14.625 C-12.00080078 13.43390625 -12.00080078 13.43390625 -12.51171875 12.21875 C-12.82753906 11.45820313 -13.14335937 10.69765625 -13.46875 9.9140625 C-13.90864258 8.8614624 -13.90864258 8.8614624 -14.35742188 7.78759766 C-15 6 -15 6 -15 4 C-13.06767179 3.13419713 -11.12892806 2.28270059 -9.1875 1.4375 C-8.10855469 0.96183594 -7.02960938 0.48617188 -5.91796875 -0.00390625 C-3 -1 -3 -1 0 0 Z " fill="#060406" transform="translate(339,296)"/>
<path d="M0 0 C4.72065967 1.54269924 9.41664092 3.07794619 14 5 C11.94235079 11.45353615 9.57616518 17.7361263 7 24 C5.41531323 23.54636829 3.83230076 23.08688548 2.25 22.625 C0.92742187 22.24214844 0.92742187 22.24214844 -0.421875 21.8515625 C-2.76080572 21.0790066 -4.83442562 20.16374324 -7 19 C-5.17778624 12.38757278 -2.94776396 6.19479329 0 0 Z " fill="#050305" transform="translate(331,133)"/>
<path d="M0 0 C1.29368129 2.48647917 2.29845726 4.76311227 3.25 7.375 C3.518125 8.06078125 3.78625 8.7465625 4.0625 9.453125 C5.1977905 12.43036641 6 14.78971192 6 18 C4.23141309 18.67260351 2.46003984 19.33788395 0.6875 20 C-0.29863281 20.37125 -1.28476563 20.7425 -2.30078125 21.125 C-5 22 -5 22 -8 22 C-9.19942605 19.40074504 -10.38472821 16.79654493 -11.5625 14.1875 C-12.07586914 13.08051758 -12.07586914 13.08051758 -12.59960938 11.95117188 C-12.91865234 11.23896484 -13.23769531 10.52675781 -13.56640625 9.79296875 C-13.86490479 9.1383667 -14.16340332 8.48376465 -14.47094727 7.80932617 C-15 6 -15 6 -14 3 C-11.85546875 1.796875 -11.85546875 1.796875 -9.1875 0.75 C-8.31480469 0.39421875 -7.44210938 0.0384375 -6.54296875 -0.328125 C-2.46665722 -1.40512282 -2.46665722 -1.40512282 0 0 Z " fill="#050406" transform="translate(197,135)"/>
<path d="M0 0 C5.05255964 0.63156995 9.29593201 2.13459373 14 4 C13.30003246 8.0921179 12.11158939 11.85249219 10.6875 15.75 C10.27886719 16.89984375 9.87023437 18.0496875 9.44921875 19.234375 C8 22 8 22 6.19140625 23.04296875 C3.11212539 22.98259069 1.00656739 21.90796742 -1.75 20.5625 C-2.73484375 20.08941406 -3.7196875 19.61632812 -4.734375 19.12890625 C-5.48203125 18.75636719 -6.2296875 18.38382812 -7 18 C-5.06375702 11.79522136 -2.74390859 5.89174281 0 0 Z " fill="#050305" transform="translate(189,295)"/>
<path d="M0 0 C4.95 0 9.9 0 15 0 C15 4.95 15 9.9 15 15 C10.05 15 5.1 15 0 15 C0 10.05 0 5.1 0 0 Z " fill="#FFFFFF" transform="translate(271,30)"/>
<path d="M0 0 C4.95 0 9.9 0 15 0 C15 4.95 15 9.9 15 15 C10.05 15 5.1 15 0 15 C0 10.05 0 5.1 0 0 Z " fill="#FFFFFF" transform="translate(241,30)"/>
</svg>
